HIERARCHY
ROOT Hips
{
  OFFSET 3.71593 101.906 62.9497
  CHANNELS 6 Xposition Yposition Zposition Zrotation Xrotation Yrotation
  JOINT RightUpLeg
  {
    OFFSET -8.9458 -8.66707 0.101652
    CHANNELS 3 Zrotation Xrotation Yrotation
    JOINT RightLeg
    {
      OFFSET 0 -44.4227 1.3727
      CHANNELS 3 Zrotation Xrotation Yrotation
      JOINT RightFoot
      {
        OFFSET 0.253549 -42.0924 -1.46059
        CHANNELS 3 Zrotation Xrotation Yrotation
        JOINT RightToes
        {
          OFFSET 0.04 -4.41509 8.4991
          CHANNELS 3 Zrotation Xrotation Yrotation
          End Site
          {
            OFFSET -0.08 -0.137448 9.77979
          }
        }
      }
    }
  }
  JOINT Spine
  {
    OFFSET 0 11.8905 0
    CHANNELS 3 Zrotation Xrotation Yrotation
    JOINT Spine1
    {
      OFFSET 0 25.6574 0.127663
      CHANNELS 3 Zrotation Xrotation Yrotation
      JOINT HEad
      {
        OFFSET 0 8.73416 0.011341
        CHANNELS 3 Zrotation Xrotation Yrotation
        End Site
        {
          OFFSET -0.29 12.7742 2.51395
        }
      }
      JOINT LeftShoulder1
      {
        OFFSET 8.99 -0.362252 -0.22
        CHANNELS 3 Zrotation Xrotation Yrotation
        JOINT LeftArm
        {
          OFFSET 10.2827 -0.00338 0.322123
          CHANNELS 3 Zrotation Xrotation Yrotation
          JOINT LeftForeArm
          {
            OFFSET 32.7669 0.099144 -1.42434
            CHANNELS 3 Zrotation Xrotation Yrotation
            JOINT LeftHand
            {
              OFFSET 27.5643 0.085362 1.02216
              CHANNELS 3 Zrotation Xrotation Yrotation
              End Site
              {
                OFFSET 16.7443 -0.6 1.50291
              }
            }
          }
        }
      }
      JOINT RightShoulder
      {
        OFFSET -8.99 -0.362252 -0.22
        CHANNELS 3 Zrotation Xrotation Yrotation
        JOINT RightArm
        {
          OFFSET -10.2827 -0.00338 0.322123
          CHANNELS 3 Zrotation Xrotation Yrotation
          JOINT RightForeArm
          {
            OFFSET -32.8971 0.099144 -1.42434
            CHANNELS 3 Zrotation Xrotation Yrotation
            JOINT RightHand
            {
              OFFSET -27.4921 0.085362 1.02216
              CHANNELS 3 Zrotation Xrotation Yrotation
              End Site
              {
                OFFSET -16.6312 -0.6 1.50291
              }
            }
          }
        }
      }
    }
  }
  JOINT LeftUpLeg
  {
    OFFSET 8.9458 -8.66707 0.101652
    CHANNELS 3 Zrotation Xrotation Yrotation
    JOINT LeftLeg
    {
      OFFSET 0 -44.4227 1.3727
      CHANNELS 3 Zrotation Xrotation Yrotation
      JOINT LeftFoot
      {
        OFFSET -0.253549 -42.0924 -1.46059
        CHANNELS 3 Zrotation Xrotation Yrotation
        JOINT LeftToes
        {
          OFFSET -0.04 -4.41509 8.4991
          CHANNELS 3 Zrotation Xrotation Yrotation
          End Site
          {
            OFFSET 0.08 -0.047448 9.77979
          }
        }
      }
    }
  }
}
MOTION
Frames:	19
Frame Time:	0.0166667
6.48944 101.717 8.55983 -5.64448 2.17926 -175.103 -3.56628 -20.783 1.18446 6.91561 21.9401 -27.0654 12.3089 -0.961432 -0.384379 6.67624 1.11692 -8.6427 -3.41823 3.43224 -1.28886 -7.17317 -2.26928 -0.394805 2.33773 -2.05528 4.52185 -9.19379e-016 1.98785e-016 7.95139e-016 -88.6961 -31.5981 -9.69488 -17.515 15.4916 -20.0608 0.368473 9.90896 -0.00117927 0.467675 0.52335 2.40637 83.8337 -28.8444 0.221974 18.7373 13.8878 9.38851 -0.369625 9.91382 0.00119885 -2.59157 -1.50208 12.7285 4.46024 55.7959 -0.301671 0.0592979 -1.43489 0.0300115 -4.04395 12.1466 -10.6871 
6.76411 101.943 6.79013 -5.07882 2.18551 -175.168 -2.84546 -19.5627 1.44204 7.37869 21.7187 -27.0413 12.3584 -1.85466 -0.292761 6.53907 -0.0297018 -8.81414 -2.80394 3.60718 -1.26381 -6.83813 -2.23433 -0.383678 2.29969 -2.12732 4.68829 2.73329e-016 0 7.95139e-016 -88.0082 -32.6852 -7.89249 -17.3217 15.4738 -20.1295 0.368473 9.90896 -0.00117927 0.669695 0.498783 2.01144 83.8824 -28.5561 0.853306 18.7625 13.9213 9.57325 -0.369625 9.91382 0.00119885 -1.60799 -3.60602 13.4488 6.85358 58.7538 -2.39877 0.680272 1.97605 0.00121855 -3.24972 12.8897 -9.78129 
7.01963 102.161 5.14333 -4.75082 2.12651 -175.079 -2.48653 -18.4792 1.3793 7.80859 21.5804 -26.8373 12.5255 -2.85106 -0.187084 6.65545 -0.697135 -9.19623 -2.26974 3.71651 -1.30615 -6.82565 -2.03344 -0.36923 2.4671 -2.33653 4.75323 2.11209e-016 1.98785e-016 3.97569e-016 -87.2438 -33.6122 -6.37695 -17.2639 15.4842 -20.2763 0.368473 9.90896 -0.00117927 1.00275 0.511922 1.97251 83.7992 -28.1289 1.44897 18.9289 14.0138 10.0441 -0.369625 9.91382 0.00119885 -1.22563 -6.00305 13.1841 8.70256 61.7523 -3.50653 1.53881 4.64511 -0.0764321 -2.51897 12.5857 -8.47428 
7.2413 102.368 3.57571 -4.54763 1.99499 -174.929 -2.30879 -17.4883 1.17253 8.1952 21.413 -26.5888 12.6869 -3.80241 -0.0850655 6.7779 -1.18794 -9.53795 -1.7902 3.78563 -1.37256 -6.92201 -1.81321 -0.356766 2.6801 -2.6208 4.73609 4.28629e-016 -9.93923e-017 3.97569e-016 -86.4928 -34.4983 -4.99246 -17.2915 15.5133 -20.4717 0.368473 9.90896 -0.00117927 1.24014 0.540272 2.15552 83.826 -27.7319 2.09177 19.0382 14.1162 10.5981 -0.369625 9.91382 0.00119885 -1.1796 -8.61245 12.2732 9.96394 64.7484 -3.74644 2.33671 6.1428 -0.150102 -1.87234 11.7265 -7.09557 
7.39328 102.564 2.04511 -4.40362 1.75302 -174.811 -2.19878 -16.6101 0.906929 8.48902 21.1695 -26.3269 12.686 -4.58567 -0.000706546 6.67354 -1.71013 -9.56337 -1.41887 3.80763 -1.40449 -6.88569 -1.7298 -0.35049 2.75831 -2.9623 4.61849 2.32951e-016 -4.96962e-017 7.95139e-016 -85.8488 -35.4458 -3.57415 -17.3908 15.5643 -20.7407 0.368473 9.90896 -0.00117927 1.10775 0.56823 2.5166 84.1984 -27.5698 2.83185 18.8857 14.1885 11.0783 -0.369625 9.91382 0.00119885 -1.33699 -11.3543 10.5502 9.48389 67.7522 -1.76705 2.81008 5.48614 -0.159652 -1.40271 10.8697 -5.98628 
7.51736 102.739 0.556258 -4.28914 1.51533 -174.73 -2.07156 -15.7586 0.623056 8.66306 20.9204 -26.0724 12.665 -5.26524 0.0734626 6.43727 -2.22198 -9.39399 -1.05353 3.81382 -1.433 -6.81099 -1.64213 -0.343333 2.75137 -3.28252 4.53219 1.23464e-015 -1.2424e-017 -1.59028e-015 -85.2322 -36.4256 -2.18837 -17.5645 15.6334 -21.0666 0.368473 9.90896 -0.00117927 0.748171 0.596709 3.04211 84.8194 -27.4019 3.69631 18.6396 14.2358 11.4505 -0.369625 9.91382 0.00119885 -1.70744 -14.0756 8.64935 7.99953 70.3703 1.05775 3.00407 3.89137 -0.137128 -1.08146 9.96444 -5.11401 
7.64922 102.884 -0.892199 -4.13463 1.40912 -174.732 -1.76366 -14.8343 0.372169 8.62515 20.7137 -25.8768 12.7484 -5.81244 0.135465 5.98347 -2.79353 -8.93139 -0.570981 3.84349 -1.47261 -6.70439 -1.42311 -0.326731 2.62856 -3.48835 4.63178 7.64079e-016 9.93923e-017 7.95139e-016 -84.596 -37.4485 -0.866188 -17.8256 15.722 -21.4607 0.368473 9.90896 -0.00117927 0.204997 0.625293 3.74191 85.6845 -27.0334 4.7602 18.3971 14.2449 11.6006 -0.369625 9.91382 0.00119885 -2.02938 -16.57 7.2962 7.43614 72.277 2.16665 2.83811 2.34618 -0.08937 -0.959211 9.21502 -4.62738 
7.7713 102.996 -2.32419 -3.99878 1.35857 -174.787 -1.41161 -13.8991 0.203545 8.51426 20.5732 -25.6758 12.8335 -6.38348 0.199583 5.61512 -3.296 -8.55969 -0.0872242 3.8657 -1.51438 -6.58843 -1.18692 -0.309406 2.46268 -3.60485 4.83047 3.72721e-016 -9.93923e-017 -0 -83.9391 -38.5003 0.450668 -18.1283 15.817 -21.8634 0.368473 9.90896 -0.00117927 -0.498052 0.642309 4.50158 86.6989 -26.5272 5.90552 18.1687 14.2333 11.6108 -0.369625 9.91382 0.00119885 -2.39624 -18.8581 6.12941 7.15323 73.5402 2.71638 2.44159 0.553147 -0.0329536 -0.958968 8.41778 -4.30884 
7.8792 103.065 -3.77056 -3.92851 1.34368 -174.881 -1.12087 -12.9704 0.199364 8.46813 20.5643 -25.3786 12.83 -7.21593 0.288301 5.73952 -3.51679 -8.81586 0.304048 3.85091 -1.55505 -6.48812 -0.984581 -0.295601 2.31989 -3.64096 5.10638 -6.70898e-016 0 -3.97569e-016 -83.2552 -39.5855 1.77879 -18.4324 15.8949 -22.1505 0.368473 9.90896 -0.00117927 -1.36844 0.630304 5.18826 87.7883 -25.8372 7.023 18.0297 14.2175 11.5291 -0.369625 9.91382 0.00119885 -2.86469 -20.8712 5.01216 6.77606 74.085 3.40464 1.76801 -1.53278 0.0099958 -1.14186 7.31197 -4.17658 
7.969 103.112 -5.21192 -3.88759 1.32429 -175.016 -0.842891 -12.0822 0.307258 8.39802 20.6093 -25.1164 12.8319 -8.03706 0.375757 5.90064 -3.76951 -9.14351 0.658903 3.83412 -1.59211 -6.40182 -0.878455 -0.290144 2.18188 -3.55244 5.41907 5.2181e-016 -1.98785e-016 -3.97569e-016 -82.4998 -40.6487 3.2213 -18.7378 15.9924 -22.526 0.368473 9.90896 -0.00117927 -2.26549 0.606708 5.86701 88.8936 -25.1079 8.16637 17.8806 14.1858 11.3444 -0.369625 9.91382 0.00119885 -3.37705 -22.6847 3.99299 6.15304 73.9216 4.22464 1.25564 -3.68106 0.0501861 -1.08299 6.2613 -3.68576 
8.0312 103.168 -6.6349 -3.84963 1.23772 -175.225 -0.534951 -11.2881 0.660696 8.26763 20.6125 -25.1494 12.9435 -8.57496 0.436061 5.68449 -4.36719 -9.03775 1.0098 3.85382 -1.61886 -6.31921 -0.998132 -0.302951 2.03935 -3.22655 5.7516 -3.72721e-016 -1.98785e-016 -0 -81.5874 -41.6237 4.98074 -19.0487 16.1588 -23.2674 0.368473 9.90896 -0.00117927 -3.07263 0.581826 6.60327 90.0042 -24.5147 9.40794 17.5798 14.1196 11.0184 -0.369625 9.91382 0.00119885 -3.89953 -24.3656 3.10962 4.81392 72.9832 5.50856 1.57166 -5.68887 0.0946551 0.0106141 5.74341 -1.82457 
8.07805 103.2 -8.05234 -3.83395 1.13139 -175.414 -0.274507 -10.546 0.78756 8.06148 20.6946 -25.0025 13.0343 -9.06497 0.490398 5.40554 -5.10499 -8.88358 1.33417 3.86998 -1.6446 -6.29147 -1.19294 -0.323008 1.92576 -2.87858 6.01179 1.2424e-016 0 3.97569e-016 -80.6223 -42.5208 6.78322 -19.2988 16.3206 -24.0327 0.368473 9.90896 -0.00117927 -3.72751 0.55936 7.2631 90.9462 -23.9116 10.6001 17.327 14.0552 10.6804 -0.369625 9.91382 0.00119885 -4.44506 -25.8787 2.26512 3.49846 71.4046 6.79229 1.98195 -7.518 0.132248 1.07191 5.13613 -0.0172571 
8.11778 103.175 -9.48186 -3.85359 1.03271 -175.468 -0.102881 -9.82914 0.0331245 7.69193 21.0051 -23.9895 12.9909 -9.74486 0.562061 5.45873 -5.75161 -9.17502 1.62631 3.84983 -1.68092 -6.38482 -1.3655 -0.343996 1.898 -2.69782 6.05501 1.61513e-016 -1.98785e-016 -0 -79.7079 -43.3503 8.37593 -19.4155 16.4121 -24.4828 0.368473 9.90896 -0.00117927 -4.07656 0.549121 7.70663 91.4434 -23.1977 11.5515 17.338 14.0321 10.4666 -0.369625 9.91382 0.00119885 -5.0545 -27.2012 1.32503 2.77943 69.2849 7.86875 1.828 -9.04397 0.150575 0.900451 3.63901 0.193345 
8.15295 103.123 -10.8958 -3.89725 0.939489 -175.485 0.0127265 -9.14175 -0.903324 7.31694 21.3533 -22.9956 12.8714 -10.3354 0.619782 5.15014 -6.69348 -9.08089 1.86776 3.80998 -1.71425 -6.54347 -1.48551 -0.361736 1.89892 -2.64754 6.02159 -6.21202e-017 1.98785e-016 3.97569e-016 -78.8525 -44.1053 9.83813 -19.4491 16.4851 -24.88 0.368473 9.90896 -0.00117927 -4.27883 0.543041 8.01716 91.7832 -22.4305 12.4654 17.4279 14.0252 10.3174 -0.369625 9.91382 0.00119885 -5.65647 -28.3575 0.427217 2.25245 66.6874 8.73958 1.54436 -10.3227 0.159251 0.599855 2.31045 0.180588 
8.19495 103.058 -12.2623 -3.96881 0.8631 -175.519 0.0279669 -8.50358 -1.51124 7.11148 21.5815 -22.9973 12.606 -10.4646 0.612551 3.39958 -8.6944 -7.22777 2.03355 3.74996 -1.73802 -6.76621 -1.44901 -0.367215 1.90169 -2.79627 6.00392 8.69683e-017 1.98785e-016 3.97569e-016 -78.0984 -44.7651 11.158 -19.4125 16.5771 -25.4505 0.368473 9.90896 -0.00117927 -4.44148 0.536014 8.21743 92.1976 -21.6035 13.5305 17.4683 14.02 10.2124 -0.369625 9.91382 0.00119885 -6.19084 -29.3651 -0.3549 1.52178 63.682 9.44318 1.39288 -11.3979 0.16559 1.21462 2.19002 1.13337 
8.22547 102.996 -13.6112 -4.03739 0.790177 -175.587 0.0225359 -7.85564 -1.89883 7.00595 21.7714 -23.0631 12.4586 -10.6487 0.621409 2.05692 -10.4196 -5.71476 2.1376 3.6882 -1.74273 -6.95509 -1.37956 -0.368601 1.86338 -3.0183 6.00123 6.83322e-016 -3.97569e-016 -7.95139e-016 -77.4459 -45.3807 12.3543 -19.333 16.6523 -25.9672 0.368473 9.90896 -0.00117927 -4.56552 0.52898 8.34919 92.5537 -20.7941 14.589 17.5036 14.0229 10.1705 -0.369625 9.91382 0.00119885 -6.63285 -30.2333 -0.942982 0.850329 60.352 9.94014 1.23728 -12.1821 0.164429 1.88944 2.51895 2.04773 
8.22297 102.97 -14.9622 -4.07496 0.707683 -175.748 0.0640645 -7.133 -1.92845 7.00169 21.9846 -22.2991 12.8262 -11.509 0.7497 2.93999 -10.1759 -7.00919 2.17557 3.65204 -1.70924 -6.97857 -1.38186 -0.3715 1.68159 -3.21417 6.05288 1.61513e-016 -1.98785e-016 -7.95139e-016 -76.9124 -46.0089 13.4591 -19.2559 16.6884 -26.2531 0.368473 9.90896 -0.00117927 -4.71385 0.518326 8.45924 92.8257 -20.0895 15.565 17.514 14.0318 10.1957 -0.369625 9.91382 0.00119885 -6.93415 -30.9822 -1.27485 0.287564 56.7639 10.2948 1.0308 -12.4836 0.152427 2.0482 2.84045 2.18819 
8.20844 102.948 -16.3135 -4.07788 0.625906 -175.931 0.137763 -6.37092 -1.82731 7.01867 22.1163 -21.5508 13.2522 -12.3583 0.882258 4.14554 -9.74751 -8.71859 2.17757 3.61414 -1.65994 -6.93644 -1.40849 -0.374593 1.50962 -3.37358 6.13058 1.2424e-017 1.98785e-016 -0 -76.4558 -46.603 14.4439 -19.1498 16.6935 -26.383 0.368473 9.90896 -0.00117927 -4.80788 0.512594 8.55515 92.9727 -19.4546 16.415 17.563 14.0577 10.3127 -0.369625 9.91382 0.00119885 -7.09219 -31.6033 -1.21867 -0.0815329 53.0343 10.3598 0.767342 -12.6592 0.131493 1.97091 3.294 1.93534 
8.20191 102.898 -17.6681 -4.02123 0.565948 -176.086 0.285025 -5.57096 -1.7633 6.9732 22.0474 -21.6155 13.3208 -12.5519 0.910075 3.98376 -10.8097 -8.89923 2.18091 3.54387 -1.61183 -6.89053 -1.42448 -0.377032 1.51566 -3.44485 6.23137 6.21202e-017 5.96354e-016 -3.97569e-016 -76.039 -47.1216 15.2777 -18.9922 16.6633 -26.3555 0.368473 9.90896 -0.00117927 -4.7757 0.522701 8.70553 92.9189 -18.8934 17.0429 17.7245 14.1173 10.5789 -0.369625 9.91382 0.00119885 -7.04998 -32.0659 -0.531406 -0.153119 49.2978 9.93054 0.368409 -13.1224 0.0973266 1.6959 3.89264 1.33769 
